<?xml version="1.0" ?><!DOCTYPE svg  PUBLIC '-//W3C//DTD SVG 1.1//EN'  'http://www.w3.org/Graphics/SVG/1.1/DTD/svg11.dtd'><svg enable-background="new 0 0 512 512" height="512px" id="Layer_1" version="1.1" viewBox="0 0 512 512" width="512px" xml:space="preserve" xmlns="http://www.w3.org/2000/svg" xmlns:xlink="http://www.w3.org/1999/xlink"><path d="M448.5,437.26c-15.271,2.445-30.186,6.578-45.261,9.943c-6.744,1.505-13.75,1.976-20.546,3.264  c-3.987,0.76-8.127,2.164-12.252,2.729c1.26-0.398,2.396-0.746,3.185-1.042c5.283-2.041,10.775-3.416,16.196-5.022  c8.901-2.649,18.288-3.959,26.176-9.213c2.172-1.447,1.621-5.71-1.469-5.392c-8.887,0.927-17.97,2.135-26.791,3.669  c-9.9,1.723-19.525,4.719-29.411,6.521c-1.303,0.231-2.62,0.478-3.938,0.709c6.13-1.736,12.267-3.517,18.259-5.659  c2.996-1.07,8.323-2.445,7.628-6.586c-0.202-1.229-1.606-2.156-2.786-2.127c-9.893,0.282-19.59,3.148-29.354,4.603  c-4.964,0.738-9.929,1.419-14.886,2.156c1.201-0.622,2.207-1.403,2.742-2.402c0.934-1.737-0.188-4.617-2.504-4.356  c-20.864,2.388-41.432,6.412-61.948,10.739c2.627-1.237,5.095-2.743,7.273-4.646c1.954-1.693,0.354-4.95-2.041-4.936  c-9.604,0.058-19.345,2.069-28.904,3.104c-10.885,1.179-21.689,3.024-32.4,5.305c-3.734,0.788-7.483,1.513-11.231,2.214  c3.995-1.223,7.975-2.475,11.941-3.777c3.589-1.187,2.099-6.238-1.542-5.587c-8.229,1.462-16.652,1.867-24.917,3.191  c-8.8,1.396-17.347,4.089-26.017,6.071c-2.388,0.543-4.769,1.079-7.157,1.614c5.949-1.946,11.847-4.03,17.492-6.745  c2.598-1.244,1.339-5.536-1.462-5.391c-5.826,0.296-11.326,2.33-16.971,3.582c-6.209,1.354-12.346,2.612-18.469,4.189  c0.174-1.562-0.738-3.227-2.765-3.141c-7.656,0.333-15.863,2.822-23.1,5.225c-6.369,2.121-14.105,2.968-19.468,7.201  c-1.679,1.324-0.724,4.437,1.274,4.834c4.118,0.825,8.019-0.607,11.963-1.7c6.86-1.911,14.104-3.163,21.153-4.27  c0.992-0.159,1.976-0.333,2.96-0.521c-2.396,0.861-4.784,1.693-7.208,2.461c-4.176,1.31-8.38,2.286-12.187,4.53  c-1.693,0.991-2.084,4.11,0,5c5.826,2.469,11.992-0.637,17.673-2.627c9.299-3.256,19.851-4.805,29.476-6.976  c5.334-1.194,10.646-2.468,15.965-3.728c-8.945,2.794-17.825,5.761-26.538,9.199c-2.852,1.121-2.729,5.811,0.774,5.688  c4.776-0.188,9.285-1.259,13.83-2.721c5.449-1.752,10.732-3.155,16.341-4.371c11.087-2.41,22.182-4.748,33.37-6.586  c11.768-1.925,23.303-4.689,35.172-6.137c5.066-0.623,10.139-1.324,15.198-1.918c-0.34,0.072-0.681,0.152-0.999,0.217  c-6.303,1.15-12.44,3.098-18.758,4.248c-5.558,1.014-11.297,3.764-16.66,5.559c-5.102,1.7-10.588,2.496-15.285,5.152  c-3.025,1.708-0.854,5.826,2.229,5.29c28.021-4.855,55.681-11.709,83.609-17.043c-5.71,1.527-11.427,3.083-17.015,4.972  c-2.988,0.999-5.934,2.1-8.879,3.17c-5.232,1.035-10.443,2.294-14.793,4.77c-2.916,1.664-0.926,6.043,2.229,5.29  c5.015-1.201,9.878-2.895,14.727-4.653c3.742-0.702,7.491-1.288,10.819-2.156c10.682-2.794,21.458-5.219,32.335-7.078  c10.255-1.759,20.387-3.857,30.722-5.298c0.311-0.043,0.629-0.101,0.947-0.145c-14.705,4.161-29.114,8.916-43.617,13.751  c-2.2,0.73-3.104,4.11-0.694,5.289c4.399,2.15,11.912-1.266,16.283-2.358c10.783-2.692,21.726-4.494,32.66-6.478  c10.399-1.889,20.69-4.168,31.011-6.268c-5.182,1.737-10.465,3.134-15.596,5.182c-2.844,1.129-6.217,1.723-8.222,4.213  c-1.447,1.816-0.847,3.973,1.281,4.841c5.442,2.229,11.029,1.339,16.587,0c8.54-2.055,17.152-3.43,25.858-4.522  c7.627-0.971,15.284-3.445,22.76-5.232c8.438-2.02,16.905-3.923,25.475-5.291C453.71,442.26,452.147,436.68,448.5,437.26z" fill="#B3B3B3"/><g><g><path d="M98.396,206.979c0.079-1.708-2.577-1.708-2.664,0c-0.326,6.723-1.947,12.911-3.72,19.337    c-1.064,3.829-1.911,8.192-0.08,11.883c0.753,1.534,3.054,0.188,2.287-1.339c-2.229-4.516,0.622-11.094,2.091-15.501    C97.803,216.886,98.157,211.711,98.396,206.979z" fill="#1F8AFF"/><path d="M114.332,224.246c0-1.715-2.656-1.715-2.656,0v13.953c0,4.516-2.258,8.2-2.656,12.614    c-0.152,1.708,2.504,1.694,2.656,0c0.333-3.72,2.323-6.896,2.656-10.624C114.803,234.971,114.332,229.485,114.332,224.246z" fill="#1F8AFF"/><path d="M126.288,241.513c-0.181,9.372-2.468,18.527-2.656,27.899c-0.036,1.715,2.627,1.715,2.656,0    c0.181-9.372,2.475-18.52,2.656-27.899C128.987,239.798,126.324,239.805,126.288,241.513z" fill="#1F8AFF"/><path d="M143.562,260.112c-0.181,8.909-2.591,17.456-3.937,26.22c-0.261,1.679,2.301,2.396,2.562,0.709    c1.375-9.003,3.85-17.773,4.023-26.929C146.254,258.404,143.599,258.404,143.562,260.112z" fill="#1F8AFF"/><path d="M155.511,276.056c-0.253,8.554-3.72,16.551-5.262,24.888c-0.311,1.672,2.251,2.389,2.562,0.709    c1.578-8.583,5.095-16.789,5.363-25.597C158.225,274.34,155.568,274.34,155.511,276.056z" fill="#1F8AFF"/><path d="M175.622,284.689c-3.025,5.326-3.336,11.601-4.95,17.419c-1.259,4.552-2.873,9.018-4.487,13.454    c-0.579,1.613,1.983,2.301,2.562,0.701c1.353-3.72,2.634-7.454,3.821-11.225c1.968-6.224,2.105-13.301,5.348-19.011    C178.763,284.537,176.469,283.198,175.622,284.689z" fill="#1F8AFF"/><path d="M194.091,300.943c-3.937,10.291-8.873,19.591-9.35,30.909c-0.072,1.715,2.591,1.708,2.656,0    c0.471-11.015,5.421-20.184,9.256-30.2C197.261,300.046,194.699,299.358,194.091,300.943z" fill="#1F8AFF"/><path d="M207.508,320.556c-2.873,4.169-4.017,8.301-5.051,13.2c-1.064,5.073-2.794,10.183-3.098,15.364    c-0.102,1.715,2.547,1.708,2.648,0c0.246-4.11,2.236-7.751,2.548-11.789c0.412-5.436,2.171-10.972,5.247-15.437    C210.779,320.476,208.471,319.151,207.508,320.556z" fill="#1F8AFF"/><path d="M219.283,337.172c-0.427,8.67-1.853,17.803-3.944,26.205c-0.413,1.672,2.156,2.373,2.569,0.717    c2.171-8.743,3.589-17.934,4.031-26.922C222.025,335.449,219.37,335.464,219.283,337.172z" fill="#1F8AFF"/><path d="M239.257,347.441c-2.786,9.85-5.362,19.757-9.3,29.223c-0.658,1.585,1.911,2.265,2.562,0.702    c3.937-9.466,6.513-19.374,9.3-29.224C242.289,346.493,239.72,345.798,239.257,347.441z" fill="#1F8AFF"/><path d="M251.162,363.738c-0.231,4.364-2.113,8.062-3.047,12.26c-1.013,4.61-1.194,9.343-2.214,13.953    c-0.369,1.672,2.193,2.381,2.562,0.702c1.02-4.603,1.411-9.293,2.214-13.946c0.774-4.473,2.895-8.358,3.148-12.969    C253.912,362.023,251.263,362.031,251.162,363.738z" fill="#1F8AFF"/><path d="M263.306,377.677c-2.113,4.784-2.852,9.9-4.133,14.944c-1.15,4.545-2.446,8.888-2.692,13.628    c-0.087,1.708,2.569,1.7,2.656,0c0.231-4.364,1.354-8.757,2.598-12.926c1.434-4.769,1.824-9.697,3.865-14.308    C266.287,377.467,264,376.114,263.306,377.677z" fill="#1F8AFF"/><path d="M275.08,390.306c-0.159,8.503-2.468,16.573-3.938,24.888c-0.296,1.672,2.266,2.389,2.555,0.702    c1.521-8.547,3.872-16.848,4.039-25.59C277.765,388.598,275.109,388.598,275.08,390.306z" fill="#1F8AFF"/><path d="M289.691,403.593c-0.087,7.049-1.447,13.968-2.605,20.9c-0.289,1.672,2.272,2.388,2.555,0.702    c1.209-7.157,2.612-14.322,2.707-21.603C292.376,401.87,289.721,401.87,289.691,403.593z" fill="#1F8AFF"/><path d="M305.635,407.573c-0.203,2.323-1.426,4.017-2.476,5.971c-0.427,0.803-0.181,1.99-0.195,2.858    c-0.021,3.641-0.435,7.193-1.267,10.747c-0.391,1.664,2.172,2.374,2.562,0.709c0.796-3.431,1.229-6.839,1.353-10.349    c0.109-3.684,2.374-6.311,2.678-9.937C308.436,405.873,305.779,405.88,305.635,407.573z" fill="#1F8AFF"/><path d="M318.799,405.598c0.246-6.42,0.115-12.86,0.115-19.279c0-1.716-2.648-1.716-2.648,0    c0,5.008,0.036,10.009-0.021,15.009c-0.021,1.571,0.55,11.065-0.659,11.746c-1.49,0.84-0.145,3.126,1.347,2.287    C319.349,414.014,318.712,407.783,318.799,405.598z" fill="#1F8AFF"/><path d="M336.182,381.006c-0.238,3.872-2.084,7.057-3.09,10.718c-1.324,4.806-3.496,9.351-4.827,14.171    c-0.456,1.657,2.105,2.352,2.562,0.709c2.316-8.402,7.462-16.834,8.019-25.598C338.953,379.291,336.298,379.306,336.182,381.006z" fill="#1F8AFF"/><path d="M349.382,387.838c4.849-6.998,4.14-15.755,4.082-24.1c-0.015-1.715-2.678-1.715-2.663,0    c0.058,7.723,0.984,16.226-3.677,22.746c-1.114,0.275-1.556,0.977-1.636,2.489c-0.058,1.144,1.498,1.78,2.266,0.941    c0.318-0.348,0.601-0.702,0.89-1.071C349.07,388.655,349.31,388.265,349.382,387.838z" fill="#1F8AFF"/><path d="M369.399,354.439c-0.029-1.723-2.678-1.723-2.656,0c0.131,8.409,2.758,18.512-2.475,25.9    c-0.991,1.397,1.31,2.715,2.294,1.332C372.143,373.806,369.544,363.377,369.399,354.439z" fill="#1F8AFF"/><path d="M385.285,362.132c-0.188-8.337-1.194-16.623-1.274-24.96c-0.007-1.723-2.67-1.723-2.655,0    c0.086,8.865,1.244,17.688,1.331,26.566c0.015,1.708,2.656,1.716,2.656,0v-1.331C385.343,362.299,385.307,362.219,385.285,362.132    z" fill="#1F8AFF"/><path d="M399.954,317.241c-0.015-1.716-2.663-1.716-2.656,0c0.08,8.749,1.252,17.687-1.28,26.212    c-0.492,1.65,2.076,2.345,2.562,0.709C401.185,335.398,400.033,326.236,399.954,317.241z" fill="#1F8AFF"/><path d="M411.909,302.63c-0.064-1.716-2.721-1.716-2.655,0c0.145,3.597,1.187,7.034,1.331,10.624    c0.123,3.09,0,6.201,0,9.299c0,1.716,2.656,1.716,2.656,0v-9.299C413.241,309.664,412.062,306.212,411.909,302.63z" fill="#1F8AFF"/><path d="M427.853,285.355c-0.029-1.708-2.685-1.709-2.656-0.001c0.08,4.907,1.252,9.705,1.332,14.612    c0.028,1.715,2.678,1.722,2.656,0C429.104,295.06,427.933,290.262,427.853,285.355z" fill="#1F8AFF"/><path d="M290.748,126.597c-3.09,5.066-4.863,10.566-6.629,16.204c-1.759,5.602-3.734,12.23-4.19,18.122    c-0.123,1.715,2.525,1.701,2.663,0c0.369-4.863,3.025-9.148,3.395-13.946c0.478-6.318,3.82-13.743,7.049-19.041    C293.933,126.474,291.631,125.143,290.748,126.597z" fill="#1F8AFF"/><path d="M306.894,142.272c-4.35,4.574-7.157,10.617-9.198,16.522c-0.564,1.628,2.012,2.316,2.562,0.709    c1.881-5.45,4.501-11.131,8.51-15.35C309.955,142.917,308.073,141.028,306.894,142.272z" fill="#1F8AFF"/><path d="M326.173,213.391c-3.3,6.499-7.034,12.686-7.273,20.162c-0.043,1.708,2.605,1.708,2.663,0    c0.218-6.962,3.836-12.773,6.897-18.816C329.241,213.209,326.947,211.863,326.173,213.391z" fill="#1F8AFF"/><path d="M345.655,218.709c-3.373,5.066-7.013,10.327-7.267,16.609c-0.079,1.708,2.584,1.708,2.656,0    c0.231-5.739,3.828-10.653,6.904-15.27C348.904,218.615,346.596,217.291,345.655,218.709z" fill="#1F8AFF"/><path d="M359.645,230.006v3.546c0,1.708,2.655,1.708,2.655,0v-3.546    C362.3,228.291,359.645,228.291,359.645,230.006z" fill="#1F8AFF"/><path d="M186.058,230.006c-0.34,7.961-5.037,14.952-5.319,23.021c-0.058,1.715,2.598,1.715,2.656,0    c0.275-8.062,4.979-15.017,5.319-23.021C188.779,228.291,186.13,228.299,186.058,230.006z" fill="#1F8AFF"/><path d="M203.817,240.283c-1.636,4.805-3.481,9.372-3.59,14.517c-0.043,1.715,2.613,1.715,2.649,0    c0.116-4.892,1.947-9.249,3.503-13.808C206.929,239.356,204.367,238.669,203.817,240.283z" fill="#1F8AFF"/><path d="M154.165,137.901c-0.557,8.221-6.795,14.532-7.085,23.021c-0.051,1.715,2.605,1.715,2.656,0    c0.282-8.431,6.528-14.735,7.092-23.021C156.943,136.187,154.288,136.201,154.165,137.901z" fill="#1F8AFF"/><path d="M173.834,140.774c-3.496,5.117-8.684,10.074-9.039,16.609c-0.086,1.715,2.562,1.701,2.656,0    c0.318-5.833,5.551-10.696,8.677-15.27C177.099,140.695,174.797,139.363,173.834,140.774z" fill="#1F8AFF"/><path d="M190.436,146.405c-0.311-1.686-2.873-0.97-2.562,0.702c0.76,4.168-2.8,7.562-5.102,10.587    c-1.983,2.605-3.611,5.204-3.807,8.547c-0.102,1.715,2.555,1.701,2.656,0C182.078,158.541,191.971,154.771,190.436,146.405z" fill="#1F8AFF"/></g><g><path d="M292.84,436.724c-12.586,0-25.207-6.043-39.695-19.004c-0.897-0.789-1.462-1.679-1.708-2.663l-0.21-0.833    l-0.564-0.637c-14.655-16.428-30.923-31.524-46.642-46.114c-13.287-12.339-27.001-25.068-39.586-38.45    c-4.646-4.936-9.271-9.899-13.902-14.85l-1.107-1.18c-21.32-22.797-43.321-46.331-66.233-68.332    c-0.912-0.89-1.477-1.859-1.679-2.902l-0.203-1.071l-0.774-0.76c-13.511-13.164-20.987-29.671-19.981-44.16    c0.752-10.863,6.137-20.032,15.986-27.269l0.521-0.376l0.348-0.55c0.354-0.558,0.673-0.963,1.078-1.339    c9.77-9.075,19.482-18.578,28.883-27.776l0.253-0.239c28.535-27.927,58.041-56.803,92.923-77.501l0.123-0.079l0.26-0.188    c0.63-0.543,1.115-0.854,1.701-1.107c0.818-0.448,1.332-0.651,1.99-0.817c8.974-3.452,17.637-5.247,25.221-5.247    c9.422,0,17.296,2.649,23.418,7.874l0.601,0.506l0.767,0.21c1.368,0.355,2.432,1.194,3.265,2.569    c16.825,27.906,41.279,50.463,64.937,72.283c8.692,8.019,17.637,16.276,25.967,24.577c26.553,26.487,57.606,57.049,90.137,84.622    l0.825,0.702l1.078,0.094c1.136,0.108,2.127,0.716,3.047,1.846c16.239,19.995,6.115,43.45-7.498,57.461l-0.767,0.782l-0.167,1.085    c-0.123,0.804-0.478,1.563-1.071,2.331c-4.603,6.007-9.097,12.15-13.446,18.092c-12.874,17.615-25.032,34.238-40.672,48.907    c-2.402,2.236-7.425,5.848-12.729,9.676c-6.644,4.77-14.083,10.125-19.475,14.945l-0.673,0.601l-0.297,0.854    c-0.261,0.76-0.709,1.506-1.339,2.2c-1.563,1.715-3.17,3.423-4.798,5.102l-0.637,0.666l-0.225,0.869    c-0.087,0.268-0.231,0.688-0.282,1.216c-0.384,4.559-4.335,5.825-6.607,5.861l-1.252,0.015L331,420.035    c-11.072,9.48-21.399,14.647-32.509,16.276C296.609,436.586,294.707,436.724,292.84,436.724L292.84,436.724z M228.756,64.83    c-7.562,0-14.727,2.367-19.402,4.342c-35.707,20.604-65.01,49.421-93.35,77.284c-9.452,9.292-19.2,18.874-28.991,27.971    c-0.413,0.376-0.869,0.694-1.448,0.991l-0.904,0.47l-0.5,0.876c-0.434,0.745-1.042,1.404-1.824,1.954    c-7.107,5.117-10.696,11.869-10.66,20.068c0.043,14.206,11.673,29.896,23.144,38.045c1.513,1.078,2.424,2.569,2.627,4.32    l0.13,1.208l0.868,0.854c13.656,13.519,26.929,27.725,39.767,41.446c13.627,14.59,27.732,29.672,42.286,43.936    c9.082,8.901,18.425,17.594,27.457,26.003c17.629,16.398,35.809,33.318,51.969,51.628c0.622,0.717,1.063,1.484,1.331,2.287    l0.297,0.912l0.71,0.622c10.254,9.018,20.256,13.403,30.568,13.403c13.026,0,25.98-7.078,40.752-22.247    c5.572-6.969,13.692-12.896,20.864-18.136c3.364-2.46,6.397-4.675,9.01-6.839c19.409-16.052,34.079-35.953,48.277-55.196    c2.729-3.698,5.464-7.41,8.236-11.102l0.745-0.999l-0.051-1.229c-0.094-2.193,0.796-4.061,2.591-5.399    c10.791-8.083,23.007-26.87,14.959-41.54l-0.514-0.94l-0.94-0.478c-0.413-0.218-0.825-0.492-1.216-0.811    c-26.937-22.428-52.259-47.28-76.741-71.313c-10.66-10.465-21.523-21.125-32.393-31.474c-4.683-4.465-9.438-8.895-14.199-13.323    c-22-20.495-44.725-41.678-61.247-67.058l-0.369-0.579l-0.579-0.391c-0.514-0.347-0.912-0.702-1.259-1.1    C243.903,67.681,237.173,64.83,228.756,64.83L228.756,64.83z" fill="#0077BF"/><path d="M297.789,394.314c-1.744,0-3.328-0.601-4.356-1.649c-0.934-0.955-1.375-2.222-1.339-3.872    c0.601-25.597-1.809-51.288-4.14-76.133c-1.302-13.945-2.634-28.13-3.43-42.091l-0.181-3.104l-16.79-0.789    c-10.595-0.499-21.183-0.991-31.764-1.52c-3.546-0.174-5.883-2.511-6.093-6.107c-0.767-13.497-1.701-26.842-2.866-42.735    l-0.326-4.53l-4.277,1.534c-0.673,0.239-1.346,0.362-2.041,0.362c-15.386-0.203-30.895-1.303-45.897-2.374    c-16.876-1.202-34.166-2.432-51.289-2.432c-3.047,0-6.101,0.043-9.162,0.116l-0.26,0.015c-3.799,0-5.204-2.989-5.232-5.551    c-0.029-2.265,1.129-6.145,5.688-6.268c3.018-0.086,6.029-0.123,9.039-0.123c16.862,0,34.014,1.223,50.601,2.41    c15.162,1.078,30.793,2.193,46.295,2.396c0.463,0.007,0.948,0.065,1.39,0.159l4.516,0.97l-0.326-4.596    c-2.887-39.868-5.319-78.919-3.654-118.382c0.188-4.53,4.053-5.739,6.311-5.739c1.737,0,3.3,0.593,4.284,1.621    c0.897,0.94,1.303,2.192,1.237,3.828c-1.874,43.943,1.368,88.371,4.494,131.322c0.941,12.933,1.911,26.256,2.736,39.471    l0.188,3.083l3.083,0.152c7.382,0.362,14.749,0.709,22.123,1.042c49.755,2.337,101.145,4.748,151.333,11    c4.132,0.506,6.086,4.183,5.876,7.541c-0.086,1.316-0.65,4.378-4.139,4.378c-0.275,0-0.579-0.015-0.884-0.051    c-40.744-5.095-81.032-7.541-118.513-9.437l-3.85-0.188l0.231,3.851c0.811,13.786,2.12,27.731,3.38,41.229    c2.323,24.772,4.719,50.318,4.125,75.511C303.811,393.113,300.012,394.314,297.789,394.314L297.789,394.314z" fill="#0077BF"/></g></g></svg>